# File created by Blade
# Date/Time:  Thu Jan 22 16:16:06 2015
# Frame Rate: 120.000 fps
#------------------------------------------------------
:FULLY-SPECIFIED
:DEGREES
729
root 1.881583 34.569361 -6.888308 55.996327 -1.934754 5.677866
RightUpLeg -58.294452 -25.574540 -12.651284
RightLeg -5.691797 -0.000000 0.000000
RightFoot 0.287163 -27.452770 33.414360
RightToeBase 14.425734 -0.000000 -0.000000
LeftUpLeg -60.607242 15.012000 5.759729
LeftLeg -3.337124 -0.000000 0.000000
LeftFoot 4.085785 16.649496 -35.247499
LeftToeBase 11.354923 -0.000000 -0.000000
Spine 81.182829 -6.032606 -7.738569
RightShoulder 12.718885 19.592400 -46.470171
RightArm 55.124097 31.168601 29.254421
RightForeArm -25.771740 0.000000 25.341554
RightHand 15.089038 -0.000000 -28.762410
RightHandThumb1 -24.326973 -0.000000 -32.862282
LeftShoulder 8.112728 9.036022 48.853363
LeftArm 69.985820 -50.423755 -35.519793
LeftForeArm 66.942076 -0.000000 20.341100
LeftHand -23.726690 -0.000000 25.764379
LeftHandThumb1 -26.253704 0.000000 33.147579
Head -16.989801 9.907183 -10.184926
730
root 1.883238 34.573780 -6.882091 55.790013 -1.891062 5.652463
RightUpLeg -57.943658 -25.410572 -12.909495
RightLeg -5.742697 -0.000000 0.000000
RightFoot 0.190846 -27.709118 33.445188
RightToeBase 14.415703 -0.000000 -0.000000
LeftUpLeg -60.446620 14.967505 5.895551
LeftLeg -3.205968 -0.000000 0.000000
LeftFoot 4.012533 16.643555 -35.266654
LeftToeBase 11.307116 -0.000000 -0.000000
Spine 81.075345 -6.079209 -7.858721
RightShoulder 12.777190 19.631332 -46.509628
RightArm 55.565028 30.841568 29.574624
RightForeArm -25.619899 -0.000000 25.030419
RightHand 15.082802 -0.000000 -28.612051
RightHandThumb1 -24.326973 -0.000000 -32.862282
LeftShoulder 8.088620 9.333026 48.817891
LeftArm 70.307445 -50.181753 -35.555133
LeftForeArm 66.873553 -0.000000 20.084042
LeftHand -23.776432 -0.000000 25.604925
LeftHandThumb1 -26.253704 0.000000 33.147579
Head -16.721510 9.991046 -10.360867
731
root 1.887514 34.577587 -6.875710 55.561151 -1.842428 5.653560
RightUpLeg -57.724996 -25.381839 -12.993771
RightLeg -5.643309 -0.000000 0.000000
RightFoot 0.133120 -27.693542 33.487739
RightToeBase 14.556003 -0.000000 -0.000000
LeftUpLeg -60.261534 14.862584 6.068844
LeftLeg -3.066695 -0.000000 0.000000
LeftFoot 3.921972 16.684570 -35.222314
LeftToeBase 11.331552 -0.000000 -0.000000
Spine 80.972557 -6.129023 -7.938144
RightShoulder 12.835792 19.509575 -46.536318
RightArm 56.024712 30.661336 29.914431
RightForeArm -25.577587 -0.000000 24.800719
RightHand 15.012037 -0.000000 -28.276672
RightHandThumb1 -24.326973 -0.000000 -32.862282
LeftShoulder 8.093246 9.512583 48.847556
LeftArm 70.676411 -49.854014 -35.741062
LeftForeArm 66.773097 -0.000000 19.794736
LeftHand -23.758815 0.000000 25.565249
LeftHandThumb1 -26.253704 0.000000 33.147579
Head -16.427008 10.076018 -10.494013
732
root 1.887756 34.581090 -6.868170 55.327292 -1.796213 5.630373
RightUpLeg -57.532370 -25.340394 -13.035616
RightLeg -5.503911 -0.000000 0.000000
RightFoot 0.126157 -27.688777 33.437497
RightToeBase 14.505631 -0.000000 -0.000000
LeftUpLeg -60.048386 14.775844 6.284505
LeftLeg -2.944575 -0.000000 0.000000
LeftFoot 3.795126 16.733078 -35.307863
LeftToeBase 11.368215 -0.000000 -0.000000
Spine 80.876183 -6.187828 -8.080263
RightShoulder 12.901046 19.533198 -46.573994
RightArm 56.491993 30.367765 30.310364
RightForeArm -25.516184 -0.000000 24.643094
RightHand 14.821235 0.000000 -27.948884
RightHandThumb1 -24.326973 -0.000000 -32.862282
LeftShoulder 8.090405 9.775269 48.835273
LeftArm 70.973920 -49.604108 -35.960679
LeftForeArm 66.661841 -0.000000 19.665994
LeftHand -23.715568 0.000000 25.452898
LeftHandThumb1 -26.253704 0.000000 33.147579
Head -16.174462 10.188234 -10.691683
733
root 1.888087 34.585136 -6.861577 55.094508 -1.748953 5.596897
RightUpLeg -57.356747 -25.303026 -13.042223
RightLeg -5.367119 -0.000000 0.000000
RightFoot 0.088870 -27.628167 33.441321
RightToeBase 14.412982 -0.000000 -0.000000
LeftUpLeg -59.851740 14.707006 6.482385
LeftLeg -2.804692 -0.000000 0.000000
LeftFoot 3.689802 16.754081 -35.353839
LeftToeBase 11.353966 -0.000000 -0.000000
Spine 80.768633 -6.207186 -8.172908
RightShoulder 12.951020 19.525287 -46.579253
RightArm 56.904830 30.076188 30.710749
RightForeArm -25.571409 -0.000000 24.569771
RightHand 14.562513 -0.000000 -27.774306
RightHandThumb1 -24.326973 -0.000000 -32.862282
LeftShoulder 8.112309 9.953994 48.832324
LeftArm 71.270811 -49.302334 -36.118409
LeftForeArm 66.496081 -0.000000 19.475486
LeftHand -23.767613 -0.000000 25.386899
LeftHandThumb1 -26.253704 0.000000 33.147579
Head -15.905838 10.372461 -10.706852
734
root 1.889461 34.589369 -6.854471 54.852446 -1.695613 5.569832
RightUpLeg -57.170261 -25.276101 -13.049415
RightLeg -5.228245 -0.000000 0.000000
RightFoot 0.048403 -27.557249 33.434481
RightToeBase 14.450552 -0.000000 -0.000000
LeftUpLeg -59.648759 14.627748 6.664625
LeftLeg -2.674056 -0.000000 0.000000
LeftFoot 3.647039 16.774764 -35.253198
LeftToeBase 11.174112 -0.000000 -0.000000
Spine 80.670438 -6.241289 -8.231490
RightShoulder 12.950396 19.435431 -46.610498
RightArm 57.347355 29.816570 31.086037
RightForeArm -25.586360 0.000000 24.520448
RightHand 14.586477 -0.000000 -27.709331
RightHandThumb1 -24.326973 -0.000000 -32.862282
LeftShoulder 8.157096 10.132679 48.834558
LeftArm 71.546790 -49.038899 -36.289960
LeftForeArm 66.531354 -0.000000 19.320140
LeftHand -23.727540 -0.000000 25.277870
LeftHandThumb1 -26.253704 0.000000 33.147579
Head -15.625844 10.423983 -10.773459
735
root 1.888632 34.593412 -6.847456 54.619913 -1.626927 5.540912
RightUpLeg -56.996000 -25.263170 -13.023853
RightLeg -5.082503 -0.000000 0.000000
RightFoot 0.061642 -27.528888 33.353798
RightToeBase 14.392959 -0.000000 -0.000000
LeftUpLeg -59.471613 14.567362 6.809994
LeftLeg -2.544263 -0.000000 0.000000
LeftFoot 3.529111 16.795623 -35.292199
LeftToeBase 11.302649 -0.000000 -0.000000
Spine 80.571819 -6.266251 -8.264986
RightShoulder 12.924263 19.402745 -46.602868
RightArm 57.738304 29.481234 31.419742
RightForeArm -25.568453 -0.000000 24.507182
RightHand 14.460059 -0.000000 -27.706951
RightHandThumb1 -24.326973 -0.000000 -32.862282
LeftShoulder 8.211903 10.219433 48.852252
LeftArm 71.727665 -48.712738 -36.475100
LeftForeArm 66.572298 -0.000000 19.291163
LeftHand -23.791356 -0.000000 25.164175
LeftHandThumb1 -26.253704 0.000000 33.147579
Head -15.375321 10.564550 -10.751279
736
root 1.887440 34.598299 -6.841763 54.377735 -1.567135 5.509441
RightUpLeg -56.777693 -25.217942 -13.039701
RightLeg -4.997093 -0.000000 0.000000
RightFoot 0.031973 -27.504455 33.330740
RightToeBase 14.410791 -0.000000 -0.000000
LeftUpLeg -59.292734 14.505156 6.958404
LeftLeg -2.394066 -0.000000 0.000000
LeftFoot 3.454348 16.823770 -35.280345
LeftToeBase 11.240548 -0.000000 -0.000000
Spine 80.481037 -6.300242 -8.325307
RightShoulder 12.906758 19.273613 -46.654987
RightArm 58.151342 29.215693 31.761349
RightForeArm -25.590380 -0.000000 24.503888
RightHand 14.386770 -0.000000 -27.598996
RightHandThumb1 -24.326973 -0.000000 -32.862282
LeftShoulder 8.237937 10.423032 48.803497
LeftArm 71.990677 -48.464480 -36.544557
LeftForeArm 66.508122 -0.000000 19.095575
LeftHand -23.828491 -0.000000 25.031736
LeftHandThumb1 -26.253704 0.000000 33.147579
Head -15.106191 10.635518 -10.720590
737
root 1.886452 34.602244 -6.834821 54.123572 -1.514792 5.481230
RightUpLeg -56.557054 -25.185679 -13.032875
RightLeg -4.921338 -0.000000 0.000000
RightFoot 0.038516 -27.528127 33.267922
RightToeBase 14.396358 -0.000000 -0.000000
LeftUpLeg -59.101469 14.454591 7.084177
LeftLeg -2.247331 -0.000000 0.000000
LeftFoot 3.370852 16.818611 -35.203940
LeftToeBase 11.346101 -0.000000 -0.000000
Spine 80.408991 -6.290061 -8.342687
RightShoulder 12.845103 19.201043 -46.664493
RightArm 58.483450 28.891368 32.052863
RightForeArm -25.499684 -0.000000 24.528089
RightHand 14.390149 -0.000000 -27.358023
RightHandThumb1 -24.326973 -0.000000 -32.862282
LeftShoulder 8.302676 10.525053 48.839920
LeftArm 72.112165 -48.172701 -36.603652
LeftForeArm 66.407656 -0.000000 19.043096
LeftHand -24.064858 -0.000000 25.199918
LeftHandThumb1 -26.253704 0.000000 33.147579
Head -14.851383 10.731203 -10.639220
738
root 1.886292 34.606204 -6.827862 53.874830 -1.465645 5.463232
RightUpLeg -56.356038 -25.185658 -13.002515
RightLeg -4.838554 -0.000000 0.000000
RightFoot 0.040339 -27.425755 33.237995
RightToeBase 14.484974 -0.000000 -0.000000
LeftUpLeg -58.922326 14.413254 7.172809
LeftLeg -2.104596 -0.000000 0.000000
LeftFoot 3.327399 16.795975 -35.111068
LeftToeBase 11.349990 -0.000000 -0.000000
Spine 80.340609 -6.318243 -8.433872
RightShoulder 12.855085 19.152875 -46.673250
RightArm 58.732540 28.534999 32.178711
RightForeArm -25.355473 -0.000000 24.565300
RightHand 14.218633 0.000000 -27.560328
RightHandThumb1 -24.326973 -0.000000 -32.862282
LeftShoulder 8.383862 10.697780 48.848298
LeftArm 72.140543 -47.955584 -36.669712
LeftForeArm 66.364170 -0.000000 19.085432
LeftHand -24.111872 -0.000000 25.395713
LeftHandThumb1 -26.253704 0.000000 33.147579
Head -14.581818 10.829365 -10.525681
739
root 1.886071 34.609647 -6.820738 53.613817 -1.429033 5.446839
RightUpLeg -56.162136 -25.193936 -12.961381
RightLeg -4.742531 -0.000000 0.000000
RightFoot 0.085518 -27.329792 33.135740
RightToeBase 14.453976 -0.000000 -0.000000
LeftUpLeg -58.728411 14.383796 7.242437
LeftLeg -1.965084 -0.000000 0.000000
LeftFoot 3.345250 16.728154 -35.026246
LeftToeBase 11.175232 -0.000000 -0.000000
Spine 80.280937 -6.314932 -8.481243
RightShoulder 12.813929 19.011001 -46.700546
RightArm 58.972109 28.195112 32.239089
RightForeArm -25.260778 -0.000000 24.573648
RightHand 13.953709 0.000000 -27.457252
RightHandThumb1 -24.326973 -0.000000 -32.862282
LeftShoulder 8.499224 10.831957 48.838329
LeftArm 72.158094 -47.750412 -36.605340
LeftForeArm 66.272968 -0.000000 19.019894
LeftHand -24.198171 -0.000000 25.414458
LeftHandThumb1 -26.253704 0.000000 33.147579
Head -14.262355 10.886011 -10.391946
740
root 1.884898 34.612963 -6.814695 53.381243 -1.384086 5.434366
RightUpLeg -55.968033 -25.199112 -12.934985
RightLeg -4.671585 -0.000000 0.000000
RightFoot 0.115752 -27.265510 33.043299
RightToeBase 14.510876 -0.000000 -0.000000
LeftUpLeg -58.565686 14.359899 7.291166
LeftLeg -1.841091 -0.000000 0.000000
LeftFoot 3.247284 16.713290 -35.126054
LeftToeBase 11.356119 -0.000000 -0.000000
Spine 80.228366 -6.329203 -8.557209
RightShoulder 12.770321 18.827194 -46.737072
RightArm 59.233685 27.937361 32.273660
RightForeArm -24.920888 -0.000000 24.579657
RightHand 13.865756 -0.000000 -27.369125
RightHandThumb1 -24.326973 -0.000000 -32.862282
LeftShoulder 8.569760 11.004792 48.852944
LeftArm 72.183313 -47.587156 -36.633924
LeftForeArm 66.353109 -0.000000 19.089647
LeftHand -24.292438 0.000000 25.193164
LeftHandThumb1 -26.253704 0.000000 33.147579
Head -14.002260 10.901731 -10.242976
